<?xml version="1.0" standalone="no"?>
<!DOCTYPE svg PUBLIC "-//W3C//DTD SVG 20010904//EN"
 "http://www.w3.org/TR/2001/REC-SVG-20010904/DTD/svg10.dtd">
<svg version="1.0" xmlns="http://www.w3.org/2000/svg"
 width="500.000000pt" height="500.000000pt" viewBox="0 0 500.000000 500.000000"
 preserveAspectRatio="xMidYMid meet">
<metadata>
Created by potrace 1.16, written by Peter Selinger 2001-2019
</metadata>
<g transform="translate(0.000000,500.000000) scale(0.100000,-0.100000)"
fill="#000000" stroke="none">
<path d="M1819 4867 c-40 -19 -61 -39 -76 -75 -20 -47 -2 -103 56 -179 63 -82
78 -133 63 -227 -7 -45 -7 -88 -2 -116 5 -25 9 -68 10 -97 0 -38 9 -71 35
-124 21 -43 35 -89 35 -110 0 -49 -55 -153 -118 -227 -27 -31 -54 -67 -61 -79
-17 -34 -41 -159 -41 -219 0 -69 -21 -109 -99 -193 -34 -36 -68 -81 -77 -100
-26 -54 -112 -132 -185 -169 -83 -42 -147 -104 -189 -185 -18 -34 -42 -73 -52
-86 -10 -13 -27 -51 -37 -85 -11 -33 -35 -96 -55 -138 -22 -46 -36 -92 -36
-115 0 -21 -9 -70 -19 -108 -10 -39 -22 -122 -26 -185 -4 -63 -13 -142 -20
-175 -24 -103 -9 -178 61 -315 24 -47 61 -124 84 -172 23 -50 66 -119 102
-163 35 -42 80 -100 101 -128 75 -102 110 -129 182 -142 50 -10 112 -54 196
-142 61 -64 75 -86 127 -203 103 -229 143 -300 220 -382 59 -63 103 -85 183
-94 69 -7 115 2 215 41 53 21 75 24 185 23 199 -3 280 33 394 173 49 60 74 81
130 109 l70 35 145 0 c168 0 191 8 272 92 60 62 87 112 103 191 14 68 45 112
77 112 35 0 116 49 156 96 37 41 82 133 82 167 0 7 9 41 20 77 11 35 20 92 21
125 2 78 10 96 69 167 58 70 85 146 77 217 -3 25 1 79 10 119 20 101 8 152
-58 227 -27 31 -49 58 -49 60 0 3 11 33 25 67 41 104 67 219 61 262 -16 96
-119 222 -217 265 -75 33 -123 34 -266 7 l-132 -25 -183 14 c-210 17 -208 17
-303 127 -63 72 -121 119 -174 136 -56 19 -169 15 -241 -10 -57 -19 -72 -20
-130 -11 -36 6 -81 9 -101 6 -31 -4 -39 0 -62 27 -30 36 -34 73 -13 125 8 19
18 56 21 82 4 26 22 81 42 121 29 61 35 83 35 140 0 39 -7 82 -16 104 -9 21
-20 96 -27 177 l-11 141 43 72 c55 90 58 144 14 228 -18 36 -31 78 -35 121 -6
61 -14 77 -96 208 -110 176 -193 269 -266 301 -63 27 -207 37 -249 17z m167
-117 c43 -17 106 -71 100 -87 -3 -8 -2 -11 4 -8 12 7 81 -87 131 -179 21 -40
48 -81 59 -91 24 -21 26 -62 5 -92 -12 -17 -22 -20 -52 -16 -29 4 -46 -1 -74
-20 -30 -21 -45 -24 -84 -20 -40 5 -50 11 -72 44 -18 28 -23 45 -19 71 3 18
10 59 15 90 8 49 7 67 -10 115 -23 68 -60 127 -100 161 -16 13 -29 28 -29 33
0 12 92 11 126 -1z m304 -520 c15 -11 40 -41 55 -66 35 -59 28 -72 -71 -151
-40 -32 -73 -64 -74 -70 0 -18 10 -16 45 7 17 11 32 20 35 20 3 0 5 -39 5 -87
0 -135 13 -268 31 -315 21 -56 20 -88 -6 -138 l-21 -41 -26 38 c-14 21 -27 40
-29 42 -2 3 -39 5 -82 5 -70 1 -82 4 -127 35 -43 29 -55 33 -97 29 -43 -5 -48
-3 -48 15 0 10 24 45 53 77 100 109 136 196 138 331 1 45 -6 69 -35 127 -26
52 -35 79 -30 98 9 34 47 48 96 36 31 -8 45 -6 75 9 48 24 78 24 113 -1z
m-260 -751 c37 -23 60 -29 109 -30 74 -2 86 -11 100 -79 16 -73 14 -131 -6
-167 -30 -54 -93 -123 -113 -123 -25 0 -52 -29 -107 -114 -60 -93 -75 -136
-77 -228 -2 -90 -12 -106 -89 -137 -69 -27 -182 -42 -205 -26 -23 16 -62 25
-62 15 0 -4 -12 -11 -27 -15 -16 -5 -35 -10 -43 -12 -8 -3 -44 -9 -80 -14 -41
-6 -94 -25 -144 -50 -43 -22 -80 -39 -81 -37 -18 19 3 103 38 150 14 18 39 61
56 95 33 66 65 96 147 137 28 14 72 46 99 71 27 25 51 45 53 45 2 0 3 -15 2
-32 -4 -63 0 -99 9 -93 15 9 40 95 47 160 6 53 28 99 64 135 109 108 146 186
137 292 -5 64 2 76 56 88 40 10 59 5 117 -31z m862 -594 c10 -4 42 -37 72 -74
126 -154 260 -239 419 -266 63 -10 41 10 -25 22 -72 14 -148 42 -148 55 0 11
84 9 250 -5 126 -11 143 -11 255 10 117 22 166 22 210 0 27 -13 105 -99 105
-114 0 -7 5 -13 10 -13 29 0 -15 -172 -68 -269 -45 -82 -47 -84 -102 -139 -42
-41 -48 -44 -88 -39 -27 3 -70 21 -117 50 -89 55 -128 69 -276 98 -152 29
-356 32 -447 6 -63 -18 -65 -18 -160 3 -120 26 -129 34 -107 86 29 68 36 97
40 173 4 87 -3 108 -53 174 -41 53 -43 75 -16 160 13 39 23 51 57 69 68 35
126 39 189 13z m-324 -52 l34 -37 -6 -74 -7 -75 48 -42 48 -43 -1 -83 c-1 -63
-8 -104 -28 -163 -47 -137 -80 -165 -142 -115 -20 15 -44 31 -53 34 -9 3 -59
-8 -111 -25 -93 -30 -143 -35 -190 -20 -14 4 -21 8 -16 9 11 1 -13 31 -26 31
-5 0 -4 -8 2 -19 9 -17 7 -18 -15 -12 -25 6 -216 -3 -265 -13 -14 -3 -38 -8
-53 -12 -22 -4 -35 0 -53 17 -26 24 -131 44 -137 26 -1 -5 -14 -10 -29 -10
-14 -1 -24 -6 -20 -12 3 -5 -10 4 -27 20 -45 41 -64 81 -57 119 3 17 8 46 11
64 7 40 47 107 73 121 11 6 68 13 128 16 113 6 212 21 229 35 20 15 138 40
192 40 47 0 54 -2 44 -14 -7 -8 -32 -23 -57 -33 -45 -18 -62 -40 -21 -27 57
17 104 51 179 129 45 47 87 85 95 85 7 0 13 6 13 14 0 7 23 34 52 60 43 38 58
46 91 46 33 0 46 -6 75 -37z m-1081 -355 c-23 -30 -38 -62 -47 -104 -13 -65
-9 -94 17 -119 8 -9 13 -18 10 -22 -10 -9 -107 18 -107 30 0 9 -3 8 -8 0 -11
-18 -79 -5 -84 16 -10 37 -8 125 2 157 12 37 45 59 101 69 18 3 35 8 38 11 2
2 29 4 58 4 l54 0 -34 -42z m-237 -50 c-15 -35 -16 -54 -10 -103 5 -33 8 -60
7 -61 -1 -1 -32 -4 -69 -6 l-68 -4 7 56 c8 70 28 99 94 133 29 15 54 27 55 27
2 0 -5 -19 -16 -42z m10 -255 c-15 -38 -34 -83 -40 -101 -9 -22 -18 -31 -27
-28 -8 4 -19 6 -25 6 -6 0 -8 6 -5 14 4 10 0 12 -15 8 -13 -3 -28 4 -43 20
-20 22 -22 31 -15 63 5 20 18 48 31 61 20 21 31 24 95 24 l73 0 -29 -67z m202
46 c22 0 68 -47 68 -70 0 -10 -9 -42 -19 -70 l-20 -50 30 6 c18 4 29 3 29 -4
0 -6 -5 -11 -10 -11 -6 0 -19 -14 -29 -31 -18 -30 -18 -31 4 -77 l23 -47 -54
-3 c-36 -2 -67 3 -91 14 -40 19 -124 89 -116 97 2 3 -4 8 -14 11 -10 3 -24 15
-31 26 -10 17 -9 27 8 60 11 21 20 44 20 49 0 5 10 33 23 61 l22 51 70 -6 c39
-4 78 -7 87 -6z m1024 -39 c16 -16 38 -40 50 -52 11 -13 41 -40 66 -60 63 -51
109 -143 101 -201 -6 -48 -24 -79 -71 -125 l-34 -34 30 -18 c36 -22 52 -48 52
-85 0 -26 -4 -31 -46 -67 -32 -27 -130 -49 -191 -41 -76 8 -111 36 -142 109
-14 34 -33 70 -41 81 -19 24 -179 123 -200 123 -8 0 18 -19 59 -43 71 -40 102
-69 89 -82 -3 -3 -36 -1 -73 6 -67 11 -84 19 -256 112 -95 52 -122 56 -236 36
-69 -12 -93 -4 -93 32 0 10 -9 34 -21 53 -16 28 -18 39 -9 55 6 12 14 21 18
21 4 1 18 10 31 21 21 17 22 22 10 30 -7 5 -24 9 -36 9 -27 0 -28 7 -8 34 8
11 15 32 15 48 0 32 21 46 82 54 38 5 49 2 94 -28 l51 -35 155 -6 c156 -7 188
-11 188 -29 0 -20 -50 -57 -91 -68 -24 -7 -54 -17 -65 -22 -12 -6 -40 -9 -63
-6 -25 2 -37 0 -31 -6 12 -12 111 -20 145 -12 14 4 55 33 91 66 45 41 77 61
102 66 20 4 51 17 67 29 96 72 165 84 211 35z m316 -10 c24 -7 49 -25 70 -52
122 -151 140 -160 326 -166 74 -2 138 0 142 4 5 5 -27 9 -73 10 -145 1 -237
14 -237 31 0 14 20 15 178 8 97 -5 283 -9 413 -9 221 0 237 1 265 21 71 49
101 47 162 -10 37 -35 41 -67 16 -125 -18 -40 -19 -109 -3 -128 19 -23 -7 -78
-62 -135 -89 -93 -153 -98 -245 -22 -45 37 -50 38 -127 39 -44 1 -112 -2 -151
-6 -39 -5 -155 -11 -257 -14 -102 -3 -195 -9 -207 -13 -11 -4 -31 -24 -44 -43
-30 -45 -68 -59 -105 -39 -16 8 -32 20 -36 26 -4 7 -13 13 -20 13 -7 0 -6 -4
3 -10 8 -5 10 -10 5 -10 -15 0 -84 69 -111 112 -13 20 -33 42 -43 48 -19 10
-17 14 28 74 42 55 48 70 46 104 -2 47 -48 144 -87 187 -41 44 -36 62 25 90
58 28 75 30 129 15z m-1640 -139 c60 -25 68 -38 51 -79 -7 -18 -23 -37 -36
-43 -22 -9 -22 -9 0 -5 21 4 21 2 16 -73 -3 -42 -7 -77 -8 -79 -1 -1 -25 38
-54 87 -46 80 -51 94 -51 150 0 70 7 74 82 42z m212 -167 c37 -17 61 -22 101
-18 36 3 56 0 64 -9 9 -11 0 -16 -43 -26 -81 -18 -83 -24 -57 -139 12 -53 25
-110 28 -125 l6 -29 -49 8 c-27 3 -53 13 -57 20 -10 17 -31 19 -21 2 4 -7 -6
-1 -21 14 -25 24 -27 29 -15 45 12 15 12 16 0 6 -20 -18 -51 21 -45 56 4 19 3
21 -3 7 -7 -17 -9 -16 -25 8 -33 50 -37 73 -26 158 6 46 14 85 20 86 5 2 7 8
3 13 -3 5 -2 14 1 19 4 6 24 -7 48 -31 23 -23 64 -52 91 -65z m-264 -25 c37
-61 38 -67 15 -143 l-17 -59 -22 36 c-12 20 -28 66 -35 102 -12 58 -11 68 3
90 9 14 18 25 20 25 3 0 18 -23 36 -51z m671 -20 c11 -5 28 -23 38 -39 18 -31
168 -144 286 -217 62 -38 76 -43 130 -43 46 0 74 -7 114 -26 36 -18 75 -28
123 -32 68 -5 70 -6 95 -45 13 -21 41 -71 60 -109 30 -60 34 -76 28 -114 -8
-54 -35 -77 -116 -100 -72 -20 -92 -39 -52 -48 99 -24 103 -26 103 -51 0 -29
-23 -53 -58 -61 -15 -3 -43 -11 -62 -17 -19 -7 -90 -12 -156 -12 -106 0 -125
3 -143 19 -23 21 -28 46 -8 46 9 0 9 2 -1 9 -8 4 -12 19 -11 32 2 13 -16 64
-39 112 -23 49 -42 91 -42 94 0 4 -7 15 -17 25 -15 17 -15 18 3 18 12 0 15 3
8 8 -7 4 -14 16 -17 27 -4 17 -5 17 -6 -4 l-1 -23 -19 23 c-10 13 -16 30 -13
38 3 9 1 12 -6 7 -7 -4 -12 -3 -12 2 0 5 -9 12 -21 15 -12 3 -18 10 -14 16 3
6 0 9 -7 6 -18 -7 -48 15 -30 22 6 2 12 9 12 15 0 6 -6 6 -15 -2 -12 -10 -20
-9 -40 4 -40 26 -29 0 13 -31 61 -46 117 -112 157 -185 39 -73 41 -101 3 -52
-71 90 -302 323 -351 352 -16 10 -25 22 -22 31 4 10 2 11 -8 3 -7 -6 -29 -13
-48 -15 -19 -2 -40 -6 -46 -10 -6 -4 -17 -1 -25 6 -7 8 -18 12 -25 10 -6 -2
-15 1 -19 8 -5 8 -3 10 7 5 8 -4 6 -1 -4 7 -10 8 -19 23 -21 33 -3 11 -9 32
-15 48 -7 16 -9 31 -6 34 2 3 1 10 -4 16 -17 21 -23 92 -9 103 7 6 56 18 108
27 51 9 96 19 99 21 9 9 103 5 122 -6z m-552 -176 c33 -50 71 -99 85 -108 13
-9 49 -19 80 -22 l55 -6 -30 -52 c-37 -65 -37 -95 1 -146 16 -23 27 -46 24
-51 -7 -11 -82 -8 -112 6 -13 5 -21 15 -18 23 3 8 2 12 -3 8 -11 -6 -51 42
-51 62 0 8 -4 12 -9 9 -8 -5 -50 68 -54 91 0 4 -6 13 -13 20 -25 25 -47 121
-41 182 4 54 14 87 22 79 2 -2 30 -44 64 -95z m2559 -132 c9 -5 39 -15 65 -22
53 -13 77 -40 57 -65 -7 -7 -17 -11 -23 -7 -6 3 -7 1 -3 -6 5 -8 12 -9 20 -2
9 8 12 2 13 -24 1 -19 -3 -35 -8 -35 -5 0 -4 -11 1 -24 6 -18 5 -26 -4 -29 -8
-3 -21 -38 -30 -79 -9 -40 -20 -78 -24 -85 -13 -21 -84 -73 -93 -68 -4 3 -10
1 -14 -5 -9 -14 -45 -12 -45 3 0 8 -4 7 -10 -3 -8 -13 -10 -13 -10 2 0 10 -5
15 -13 12 -8 -3 -19 2 -26 10 -6 7 -21 12 -31 9 -28 -8 -25 11 5 27 14 7 25
20 25 27 0 12 -3 11 -16 -2 -19 -19 -32 -12 -15 9 9 11 8 15 -4 20 -11 4 -15
-1 -15 -19 0 -14 -4 -25 -10 -25 -5 0 -10 8 -10 18 0 11 -3 13 -8 6 -13 -21
-132 -39 -143 -23 -5 9 -12 10 -21 3 -7 -6 -37 -16 -67 -23 -45 -11 -55 -11
-62 0 -7 11 -9 10 -9 -4 0 -15 -3 -16 -22 -5 -13 7 -26 11 -30 10 -5 -1 -8 2
-8 7 0 11 -39 6 -49 -5 -3 -4 2 -4 12 -1 9 4 17 2 17 -3 0 -6 6 -9 12 -8 27 6
11 -24 -19 -37 -29 -13 -33 -12 -38 6 -4 10 -11 19 -16 19 -6 0 -6 -8 1 -20 9
-17 8 -20 -8 -20 -10 0 -22 -4 -27 -9 -15 -13 -105 -32 -117 -25 -7 5 -8 2 -3
-6 6 -10 4 -12 -8 -7 -9 3 -27 2 -39 -3 -13 -5 -17 -9 -9 -9 23 -1 -58 -69
-109 -92 -96 -43 -179 -48 -224 -14 -18 14 -18 16 12 46 28 29 63 97 43 84 -5
-2 -16 7 -26 21 -9 14 -15 26 -13 27 52 26 102 101 100 151 -1 39 -53 157 -89
204 -14 18 -23 35 -21 37 2 3 38 16 79 29 62 21 77 22 94 12 27 -17 114 -46
139 -46 11 0 32 -12 47 -26 27 -26 28 -26 264 -35 130 -5 253 -5 273 0 20 4
87 36 147 69 112 63 132 69 163 53z m-2249 -32 c24 -9 35 -9 44 0 6 6 29 11
50 11 31 0 46 -7 74 -35 33 -33 35 -38 29 -82 l-6 -48 77 -45 c74 -43 223
-160 272 -213 17 -19 23 -37 23 -69 -1 -55 30 -106 77 -125 27 -12 66 -14 160
-12 l124 4 46 -90 c40 -77 46 -97 46 -151 0 -45 -5 -67 -18 -81 -25 -29 -88
-44 -168 -42 -38 1 -72 -1 -75 -4 -3 -3 16 -12 43 -21 36 -11 134 -48 161 -62
1 -1 0 -8 -3 -16 -7 -17 -96 -64 -181 -97 -73 -28 -152 -23 -198 13 -43 33
-106 124 -149 214 -25 53 -32 84 -35 144 -2 42 0 83 5 92 5 9 7 33 5 55 -3 29
-8 38 -18 34 -11 -4 -12 -9 -3 -19 9 -10 8 -15 -3 -19 -10 -4 -13 -23 -10 -78
l4 -72 -26 48 c-14 26 -26 57 -26 68 0 10 -4 19 -10 19 -5 0 -10 6 -10 14 0 8
-12 29 -27 47 -16 18 -21 29 -13 24 8 -4 4 3 -10 17 -14 13 -28 23 -31 21 -10
-4 -20 27 -13 38 3 5 1 9 -5 9 -5 0 -11 -5 -13 -11 -2 -6 -23 8 -46 30 -23 23
-47 41 -53 41 -6 0 -9 7 -6 14 4 11 1 13 -10 9 -10 -4 -14 -2 -10 4 3 5 -10
17 -29 27 -20 9 -34 22 -31 29 6 16 -43 19 -61 4 -8 -6 -16 -7 -20 -1 -4 5
-14 10 -22 12 -21 5 -41 23 -35 32 3 4 -2 10 -10 14 -25 9 -18 36 10 36 31 0
81 24 87 42 3 7 -8 23 -24 36 -15 13 -26 27 -23 32 3 4 -2 11 -11 14 -13 5
-15 15 -11 45 5 39 43 95 59 85 5 -3 8 -2 7 3 -5 26 3 28 50 12z m1983 -430
c44 -11 68 -50 46 -76 -9 -11 -9 -16 3 -24 8 -5 10 -9 4 -9 -6 0 -9 -21 -7
-51 6 -73 -11 -110 -86 -186 -42 -43 -72 -55 -72 -29 0 23 -38 27 -46 4 -4
-15 -8 -17 -14 -8 -5 9 -9 9 -14 1 -11 -17 -26 -13 -26 6 0 15 -1 15 -18 0
-10 -10 -29 -17 -43 -16 -21 0 -22 1 -5 8 17 7 18 8 3 14 -9 3 -20 0 -24 -8
-5 -7 -28 -16 -52 -19 -24 -2 -72 -19 -105 -36 -44 -22 -54 -25 -37 -10 13 11
31 25 40 30 9 5 13 12 9 15 -4 4 -13 3 -20 -1 -7 -5 -15 -9 -18 -10 -20 -4
-47 -21 -58 -36 -7 -10 -20 -18 -28 -18 -8 0 -14 -6 -14 -14 0 -7 -11 -21 -25
-30 -14 -9 -25 -25 -25 -36 0 -11 -6 -20 -12 -21 -44 -2 -67 -14 -54 -26 4 -4
11 -1 16 7 8 12 10 10 10 -7 0 -31 -67 -96 -91 -90 -11 3 -17 2 -14 -3 3 -4
-7 -11 -23 -14 -15 -4 -35 -9 -46 -13 -12 -3 -16 -1 -12 6 7 10 -38 9 -118 -5
-27 -4 -28 -3 -15 13 26 33 35 40 59 48 30 9 60 34 60 50 0 7 -15 11 -35 11
-19 -1 -35 -4 -35 -8 0 -5 -5 -8 -11 -8 -6 0 -9 9 -6 20 3 11 2 20 -3 20 -4 0
-10 -9 -13 -20 -5 -20 -30 -26 -61 -14 -12 5 -6 11 23 26 22 11 43 28 46 39 4
10 11 19 16 19 6 0 7 -5 3 -12 -4 -7 -3 -8 4 -4 8 5 12 -1 13 -16 0 -22 1 -22
9 -3 5 11 9 14 9 8 1 -7 7 -13 14 -13 6 1 -1 11 -16 24 -27 22 -28 26 -29 116
-1 85 -4 97 -25 120 -14 14 -33 43 -45 64 -19 37 -19 38 -1 31 104 -44 270
-44 323 0 8 7 39 25 67 40 50 25 57 26 130 18 62 -7 86 -5 118 7 46 17 128 65
200 116 54 39 77 40 177 13z"/>
</g>
</svg>
